HIERARCHY
ROOT Hips
{
 OFFSET 0.000000 0.000000 0.000000
 CHANNELS 6 Xposition Yposition Zposition Yrotation Xrotation Zrotation
 JOINT Chest
 {
  OFFSET 0.000000 9.585900 0.002600
  CHANNELS 3 Yrotation Xrotation Zrotation
  JOINT Chest2
  {
   OFFSET 0.000000 9.601200 -0.005300
   CHANNELS 3 Yrotation Xrotation Zrotation
   JOINT Chest3
   {
    OFFSET 0.000000 9.561800 0.000000
    CHANNELS 3 Yrotation Xrotation Zrotation
    JOINT Chest4
    {
     OFFSET 0.000000 9.552100 0.000000
     CHANNELS 3 Yrotation Xrotation Zrotation
     JOINT Neck
     {
      OFFSET 0.000000 14.453000 0.000000
      CHANNELS 3 Yrotation Xrotation Zrotation
      JOINT Head
      {
       OFFSET 0.000000 8.936500 -0.011300
       CHANNELS 3 Yrotation Xrotation Zrotation
       End Site
       {
        OFFSET 0.000000 17.073600 -0.006000
       }
      }
     }
     JOINT RightCollar
     {
      OFFSET -2.921100 9.558500 0.000000
      CHANNELS 3 Yrotation Xrotation Zrotation
      JOINT RightShoulder
      {
       OFFSET -13.519700 0.000000 0.000000
       CHANNELS 3 Yrotation Xrotation Zrotation
       JOINT RightElbow
       {
        OFFSET 0.000000 -29.696600 0.000000
        CHANNELS 3 Yrotation Xrotation Zrotation
        JOINT RightWrist
        {
         OFFSET 0.000000 -24.004700 0.000000
         CHANNELS 3 Yrotation Xrotation Zrotation
         End Site
         {
          OFFSET 0.000000 -17.728500 0.000000
         }
        }
       }
      }
     }
     JOINT LeftCollar
     {
      OFFSET 2.921100 9.558500 0.000000
      CHANNELS 3 Yrotation Xrotation Zrotation
      JOINT LeftShoulder
      {
       OFFSET 13.519700 0.000000 0.000000
       CHANNELS 3 Yrotation Xrotation Zrotation
       JOINT LeftElbow
       {
        OFFSET 0.000000 -29.696600 0.000000
        CHANNELS 3 Yrotation Xrotation Zrotation
        JOINT LeftWrist
        {
         OFFSET 0.000000 -24.004700 0.000000
         CHANNELS 3 Yrotation Xrotation Zrotation
         End Site
         {
          OFFSET 0.000000 -17.728500 0.000000
         }
        }
       }
      }
     }
    }
   }
  }
 }
 JOINT RightHip
 {
  OFFSET -7.771700 -0.012900 -0.001300
  CHANNELS 3 Yrotation Xrotation Zrotation
  JOINT RightKnee
  {
   OFFSET 0.000000 -40.869800 0.001200
   CHANNELS 3 Yrotation Xrotation Zrotation
   JOINT RightAnkle
   {
    OFFSET 0.000000 -39.717900 0.002100
    CHANNELS 3 Yrotation Xrotation Zrotation
    JOINT RightToe
    {
     OFFSET 0.000000 -4.965400 11.033500
     CHANNELS 3 Yrotation Xrotation Zrotation
     End Site
     {
      OFFSET 0.000000 -1.423100 5.872300
     }
    }
   }
  }
 }
 JOINT LeftHip
 {
  OFFSET 7.771700 -0.012900 -0.001300
  CHANNELS 3 Yrotation Xrotation Zrotation
  JOINT LeftKnee
  {
   OFFSET 0.000000 -40.869800 0.001200
   CHANNELS 3 Yrotation Xrotation Zrotation
   JOINT LeftAnkle
   {
    OFFSET 0.000000 -39.717900 0.002100
    CHANNELS 3 Yrotation Xrotation Zrotation
    JOINT LeftToe
    {
     OFFSET 0.000000 -4.965400 11.033500
     CHANNELS 3 Yrotation Xrotation Zrotation
     End Site
     {
      OFFSET 0.000000 -1.423100 5.872300
     }
    }
   }
  }
 }
}
MOTION
Frames: 15
Frame Time: 0.008333
-25.311689 47.013177 27.745098 175.492759 -28.082458 -4.199117 1.854245 18.409005 2.009373 -0.013025 2.084077 0.156243 0.086904 3.423460 0.257729 0.492035 15.956336 1.260544 -0.616462 13.110447 -2.933253 0.135597 -11.429225 -5.381115 -1.225694 0.117401 -3.022142 -5.894241 -6.729880 -14.734234 -79.400865 -55.703672 123.180818 -3.868347 0.340809 -28.857532 -0.751263 -0.554935 3.397458 2.696243 -5.174383 13.111817 68.330404 -43.542835 -113.395333 10.431579 7.555167 26.428014 -3.322424 -58.396652 -6.772081 -170.666671 79.582978 -161.874469 -5.337947 -18.623798 -4.034821 -0.337518 -1.542545 -0.803135 -7.014027 -59.887911 15.811336 -116.298797 80.769569 -120.334850 6.499128 -8.144818 3.157821 1.001902 0.520773 0.428251
-25.261158 47.027438 27.702195 175.602386 -28.113755 -4.254684 1.712483 18.461985 2.000280 -0.064333 2.095813 0.156902 0.116624 3.413170 0.254761 0.438617 15.958733 1.267905 -0.563901 13.152371 -2.924887 0.139865 -11.342533 -5.334175 -1.135866 0.096719 -3.060960 -5.858470 -6.738341 -14.740403 -79.340674 -55.745311 123.170972 -3.855357 0.374761 -28.859439 -0.701158 -0.560660 3.393969 2.680899 -5.120188 13.128580 68.250885 -43.544228 -113.359728 10.434247 7.530915 26.434010 -3.724916 -58.369105 -6.744808 -172.113475 79.764028 -163.312565 -5.434748 -18.386772 -4.145088 -0.215287 -1.440146 -0.722614 -7.118059 -59.843819 15.825174 -116.541095 80.729727 -120.527532 6.639191 -8.162028 3.151766 0.879788 0.476723 0.369330
-25.193243 47.047109 27.647585 175.619138 -28.178168 -4.305226 1.529156 18.580703 1.993416 0.018105 2.072018 0.156408 0.164304 3.399243 0.247371 0.394376 15.963624 1.281916 -0.542032 13.203125 -2.906050 0.139061 -11.244833 -5.284348 -1.104635 0.077326 -3.085134 -5.789240 -6.745020 -14.754644 -79.293859 -55.782142 123.173248 -3.853271 0.367711 -28.882051 -0.681093 -0.565713 3.397266 2.668734 -5.066653 13.144173 68.161612 -43.539447 -113.319955 10.436265 7.505863 26.440685 -4.087581 -58.316709 -6.636927 -173.562461 79.946415 -164.767325 -5.489645 -18.108206 -4.249279 -0.144130 -1.358067 -0.653286 -7.229284 -59.759052 15.903559 -116.941515 80.675668 -120.840580 6.756582 -8.227227 3.074567 0.816341 0.451358 0.332097
-25.129257 47.063152 27.594580 175.692300 -28.166805 -4.307604 1.326222 18.611654 1.930504 0.090934 2.051492 0.148836 0.121928 3.408562 0.250204 0.402848 15.956385 1.287542 -0.537748 13.260975 -2.878635 0.133979 -11.138083 -5.232545 -1.085429 0.061067 -3.106213 -5.724220 -6.748685 -14.771692 -79.277828 -55.812927 123.197000 -3.797560 0.380033 -28.858152 -0.679588 -0.570431 3.407439 2.658695 -5.011265 13.157492 68.117129 -43.527614 -113.301078 10.442502 7.516195 26.448171 -4.367493 -58.353711 -6.662360 -174.983934 80.112766 -166.209807 -5.562334 -17.849684 -4.342603 -0.060048 -1.244696 -0.574033 -7.311782 -59.752510 15.849227 -117.358895 80.662560 -121.195908 6.977458 -8.250848 3.036186 0.639677 0.396513 0.243396
-25.052873 47.081652 27.537509 175.760403 -28.147575 -4.341974 1.164234 18.627181 1.911474 0.067461 2.055287 0.151407 0.144530 3.397845 0.246409 0.454003 15.944149 1.277293 -0.566741 13.329167 -2.828046 0.122582 -11.024960 -5.176455 -1.104145 0.054269 -3.103649 -5.656007 -6.754895 -14.791452 -79.361405 -55.912285 123.328734 -3.789503 0.379275 -28.866947 -0.699361 -0.571998 3.426094 2.631257 -4.954923 13.184961 68.071902 -43.517399 -113.282467 10.445982 7.525563 26.457555 -4.670307 -58.399749 -6.621764 -176.263440 80.255337 -167.513331 -5.589553 -17.537836 -4.419278 -0.020478 -1.182987 -0.512687 -7.387893 -59.760859 15.864912 -117.639381 80.613472 -121.393183 7.072176 -8.271193 2.986148 0.573446 0.353219 0.198354
-24.976589 47.101185 27.478445 175.875841 -28.110363 -4.377263 0.950508 18.630795 1.869053 0.070439 2.052104 0.150844 0.078714 3.410493 0.258728 0.510211 15.924018 1.268327 -0.552058 13.389722 -2.807780 0.105316 -10.907015 -5.115778 -1.074664 0.036049 -3.128862 -5.584568 -6.767438 -14.808553 -79.481444 -56.024904 123.458159 -3.774092 0.386285 -28.863827 -0.687610 -0.582869 3.427570 2.627900 -4.897745 13.202786 68.029524 -43.512730 -113.268717 10.448039 7.534082 26.465899 -4.958756 -58.424788 -6.607128 -177.283657 80.392073 -168.544409 -5.615703 -17.318415 -4.502108 0.028775 -1.057331 -0.441789 -7.502736 -59.779439 15.834569 -117.977409 80.592367 -121.654359 7.252524 -8.279058 2.944740 0.438931 0.291396 0.131149
-24.909662 47.113442 27.433419 175.736788 -27.978102 -4.242064 0.930188 18.524175 1.770569 0.071687 2.049261 0.150892 0.057350 3.412002 0.261913 0.524970 15.912464 1.271844 -0.538652 13.452040 -2.787078 0.088383 -10.785846 -5.053736 -1.037785 0.020146 -3.153450 -5.522128 -6.804597 -14.814472 -79.592264 -56.158615 123.556972 -3.730038 0.402937 -28.849537 -0.693797 -0.588651 3.440379 2.646828 -4.843811 13.210300 67.996103 -43.517345 -113.256971 10.448301 7.543686 26.472437 -4.831103 -58.651506 -6.762079 -178.076410 80.468358 -169.323850 -5.610122 -16.969838 -4.561166 0.036705 -1.016611 -0.382489 -7.418747 -59.900901 15.749480 -118.398357 80.607021 -122.027293 7.457065 -8.291443 2.896609 0.285395 0.227014 0.071771
-24.843632 47.127961 27.388253 175.668011 -27.847667 -4.150922 0.844726 18.422945 1.680717 0.048124 2.053450 0.154632 0.082762 3.401281 0.257192 0.531631 15.903877 1.273130 -0.537817 13.518257 -2.754547 0.074552 -10.663803 -4.990860 -1.072243 0.007175 -3.131360 -5.402575 -6.837019 -14.874766 -79.767840 -56.298881 123.717246 -3.674827 0.430626 -28.841187 -0.693401 -0.588184 3.451077 2.644703 -4.797444 13.232346 67.971885 -43.530287 -113.242166 10.446785 7.554015 26.477598 -4.893434 -58.845410 -6.821219 -178.877645 80.532580 -170.132233 -5.583997 -16.700278 -4.665866 0.032716 -0.952548 -0.324384 -7.371299 -60.018811 15.683674 -118.675298 80.582976 -122.239071 7.601195 -8.296609 2.882436 0.187664 0.163612 -0.012519
-24.780818 47.145420 27.342371 175.606116 -27.739333 -4.073387 0.752829 18.342783 1.598339 0.048909 2.051146 0.154621 0.084104 3.397635 0.257251 0.538164 15.896054 1.274714 -0.537400 13.584326 -2.721833 0.059957 -10.542133 -4.927505 -1.080960 -0.002486 -3.125264 -5.312427 -6.875575 -14.918319 -79.965146 -56.452094 123.893499 -3.613160 0.471873 -28.843918 -0.642565 -0.592627 3.432132 2.591654 -4.751357 13.286349 67.952709 -43.550079 -113.231206 10.441409 7.566158 26.484813 -4.963717 -58.990280 -6.854652 -179.580529 80.588485 -170.835498 -5.560773 -16.503828 -4.771954 0.028595 -0.865058 -0.269943 -7.355802 -60.110050 15.636771 -118.927962 80.561115 -122.431255 7.747654 -8.302398 2.828621 0.099292 0.104582 -0.062977
-24.720383 47.164819 27.298451 175.522774 -27.647881 -4.011859 0.687573 18.275949 1.542682 0.049579 2.049269 0.154832 0.085246 3.394682 0.257601 0.543802 15.889733 1.277479 -0.538997 13.649228 -2.690284 0.042056 -10.422506 -4.865505 -1.072051 -0.010924 -3.130169 -5.233893 -6.910059 -14.955823 -80.193326 -56.607019 124.086735 -3.549562 0.523197 -28.851186 -0.668888 -0.584149 3.460883 2.622094 -4.711016 13.291000 67.938879 -43.573906 -113.227795 10.430663 7.582631 26.493862 -5.012380 -59.094212 -6.846738 179.870543 80.642114 -171.373005 -5.540005 -16.357580 -4.860061 0.027151 -0.769640 -0.225931 -7.377577 -60.181130 15.641846 -119.187332 80.546376 -122.636073 7.890675 -8.316336 2.764432 0.025094 0.059506 -0.117595
-24.659455 47.187056 27.255356 175.422067 -27.589755 -3.990256 0.657672 18.239055 1.539995 0.049573 2.048365 0.155224 0.085192 3.393237 0.258152 0.544093 15.886707 1.280574 -0.542008 13.711482 -2.659759 0.022056 -10.307872 -4.805074 -1.062769 -0.020531 -3.137613 -5.138570 -6.933666 -15.000466 -80.454861 -56.750208 124.294638 -3.485062 0.577764 -28.849200 -0.696229 -0.577537 3.489473 2.654687 -4.672533 13.290780 67.933166 -43.600374 -113.226680 10.419463 7.602549 26.501546 -5.104699 -59.149564 -6.746836 179.448096 80.697934 -171.781337 -5.516877 -16.230132 -4.933540 0.024924 -0.683752 -0.195540 -7.406569 -60.224999 15.718234 -119.403202 80.508032 -122.775018 7.983932 -8.344280 2.689946 0.011796 0.032587 -0.148311
-24.611954 47.208785 27.215804 175.328905 -27.538329 -3.940165 0.615443 18.209181 1.506769 0.048755 2.048575 0.155762 0.083828 3.393522 0.259006 0.538148 15.887291 1.284054 -0.545987 13.769468 -2.629344 0.000619 -10.201215 -4.744845 -1.051301 -0.033405 -3.148455 -5.072222 -6.980141 -15.037817 -80.647561 -56.877467 124.461693 -3.422387 0.627662 -28.832223 -0.698771 -0.578683 3.501186 2.662334 -4.635399 13.301945 67.932692 -43.631658 -113.226762 10.411791 7.623628 26.506938 -5.125513 -59.202731 -6.724072 179.133594 80.738791 -172.084863 -5.489907 -16.106322 -4.986443 0.023739 -0.618674 -0.173636 -7.497088 -60.247332 15.767018 -119.728593 80.524567 -123.071620 8.097429 -8.375125 2.616204 -0.019051 0.006356 -0.178570
-24.571727 47.229899 27.180610 175.241190 -27.493872 -3.897156 0.577569 18.187748 1.481773 0.047495 2.049516 0.156598 0.081817 3.394949 0.260446 0.529083 15.890118 1.289364 -0.551329 13.821821 -2.598871 -0.023114 -10.104914 -4.684215 -1.043764 -0.048268 -3.162264 -5.074876 -7.041042 -15.058877 -80.754942 -56.991990 124.613438 -3.367286 0.666521 -28.801375 -0.709297 -0.582534 3.512939 2.669703 -4.602636 13.307734 67.938863 -43.667152 -113.228683 10.406774 7.645063 26.509600 -5.134899 -59.247416 -6.704727 178.984940 80.772464 -172.222324 -5.446981 -15.973935 -5.028098 0.021845 -0.576040 -0.155889 -7.612759 -60.260049 15.831222 -120.060200 80.546745 -123.381209 8.197249 -8.408414 2.542692 -0.052634 -0.018551 -0.187810
-24.540326 47.249557 27.150055 175.214736 -27.449025 -3.875516 0.541079 18.156175 1.461314 -0.003646 2.065621 0.165617 0.079311 3.396877 0.262224 0.517858 15.893970 1.295956 -0.557803 13.867800 -2.569318 -0.048454 -10.020408 -4.624917 -1.039872 -0.062362 -3.179179 -5.030317 -7.082116 -15.093069 -80.906717 -57.079341 124.758231 -3.324147 0.693516 -28.762134 -0.727273 -0.588272 3.523973 2.673518 -4.574975 13.308784 67.952260 -43.702725 -113.230783 10.401053 7.665028 26.509195 -5.171793 -59.288852 -6.709401 178.949569 80.797825 -172.249441 -5.396839 -15.841824 -5.063309 0.019748 -0.546533 -0.137202 -7.738495 -60.276465 15.867758 -120.358166 80.557813 -123.643687 8.296987 -8.421986 2.449784 -0.098442 -0.053056 -0.208147
-24.511465 47.267060 27.125827 175.109471 -27.403532 -3.845776 0.507131 18.146200 1.459882 0.020759 2.059805 0.163666 0.076327 3.399295 0.264011 0.504434 15.898882 1.302507 -0.565820 13.906739 -2.541299 -0.075788 -9.949033 -4.568059 -1.035717 -0.075571 -3.197830 -4.976300 -7.123239 -15.129710 -81.045842 -57.145833 124.871766 -3.288710 0.708000 -28.719469 -0.743256 -0.595114 3.530818 2.669435 -4.554377 13.310741 67.969799 -43.733588 -113.233972 10.394324 7.679887 26.507790 -5.178818 -59.328775 -6.655732 179.028196 80.835310 -172.154002 -5.343342 -15.706326 -5.111358 0.015263 -0.519392 -0.114951 -7.844113 -60.296132 15.956562 -120.674176 80.572419 -123.924486 8.389175 -8.449624 2.350562 -0.093920 -0.081201 -0.167928
